PathFileType	4	(X/Y/Z)	C:/Users/opensim2020/Desktop/walking_exp_matlab/subject06_walking19_straight_03.trc																																																																																																																																																	
DataRate	CameraRate	NumFrames	NumMarkers	Units	OrigDataRate	OrigDataStartFrame	OrigNumFrames																																																																																																																																													
100	100	4	49	mm	100	3490	358																																																																																																																																													
Frame#	Time	LFHD			RFHD			LBHD			RBHD			C7			T10			CLAV			STRN			RBAK			LSHO			LUPA			LELB			LFRM			LWRA			LWRB			LFIN			RSHO			RUPA			RELB			RFRM			RWRA			RWRB			RFIN			LASI			RASI			LPSI			RPSI			LTHI			LKNE			LTIB			LANK			LHEE			LTOE			RTHI			RKNE			RTIB			RANK			RHEE			RTOE			*39			*40			*41			*42			*43			*44			*45			*46			*47			*48		
		X1	Y1	Z1	X2	Y2	Z2	X3	Y3	Z3	X4	Y4	Z4	X5	Y5	Z5	X6	Y6	Z6	X7	Y7	Z7	X8	Y8	Z8	X9	Y9	Z9	X10	Y10	Z10	X11	Y11	Z11	X12	Y12	Z12	X13	Y13	Z13	X14	Y14	Z14	X15	Y15	Z15	X16	Y16	Z16	X17	Y17	Z17	X18	Y18	Z18	X19	Y19	Z19	X20	Y20	Z20	X21	Y21	Z21	X22	Y22	Z22	X23	Y23	Z23	X24	Y24	Z24	X25	Y25	Z25	X26	Y26	Z26	X27	Y27	Z27	X28	Y28	Z28	X29	Y29	Z29	X30	Y30	Z30	X31	Y31	Z31	X32	Y32	Z32	X33	Y33	Z33	X34	Y34	Z34	X35	Y35	Z35	X36	Y36	Z36	X37	Y37	Z37	X38	Y38	Z38	X39	Y39	Z39	X40	Y40	Z40	X41	Y41	Z41	X42	Y42	Z42	X43	Y43	Z43	X44	Y44	Z44	X45	Y45	Z45	X46	Y46	Z46	X47	Y47	Z47	X48	Y48	Z48	X49	Y49	Z49
																																																																																																																																																				
224	2.23	217.29388	1664.3324	1334.96301	214.29604	1656.04089	1466.76501	86.02652	1605.72046	1332.64124	84.12318	1602.61829	1462.10791	86.8157	1452.31543	1388.21375	46.27146	1124.67053	1401.24487	195.75502	1375.09656	1397.10974	233.62138	1198.48462	1391.90063	8.94446	1283.42847	1466.28491	157.92419	1405.98926	1232.93262	194.88181	1207.13525	1161.15381	221.73558	1096.48108	1149.86279	312.72061	975.10486	1152.42017	407.57675	909.30688	1222.36316	368.14178	872.31	1176.74658	442.09174	823.96094	1196.1366	143.34013	1407.17017	1554.86902	96.99973	1210.16492	1641.43286	103.32616	1087.9729	1653.8761	121.96326	969.25464	1671.32007	187.9467	832.94238	1640.47632	134.23326	832.07855	1679.52856	174.35841	757.47589	1681.83362	217.6472	955.98517	1296.0376	221.99515	972.7356	1517.02441	60.61238	989.1214	1326.14893	69.03369	995.69916	1494.44531	119.624	643.10846	1254.0719	96.01012	480.83374	1278.10608	6.62395	238.89418	1291.88562	-37.91661	73.67892	1341.06665	-81.03879	64.3519	1386.46863	103.0694	38.62126	1342.547	224.26384	647.5578	1589.34009	260.48999	529.34564	1561.54993	292.65613	268.83105	1575.88416	342.33026	86.43826	1540.93396	312.90875	52.09052	1496.02734	499.04526	88.64729	1540.25378	114.21513	1700.76538	1390.90186	NaN	NaN	NaN	NaN	NaN	NaN	NaN	NaN	NaN	NaN	NaN	NaN	NaN	NaN	NaN	NaN	NaN	NaN	NaN	NaN	NaN	NaN	NaN	NaN	NaN	NaN	NaN
225	2.24	223.09425	1663.51489	1336.18848	220.15143	1655.13159	1467.90625	91.83889	1604.82397	1334.17041	90.27081	1601.66675	1463.61023	92.81577	1451.50928	1389.61609	52.39546	1123.70471	1402.3009	201.71756	1374.14697	1398.22729	239.53719	1197.59094	1392.87695	15.04125	1282.53442	1467.63855	163.6321	1405.22058	1234.18152	200.18428	1206.2749	1162.31494	226.50281	1095.67908	1151.17981	318.22943	974.53052	1153.97168	413.34137	909.32336	1224.17847	374.07928	872.07538	1178.65112	448.22174	824.00372	1198.25525	149.64961	1406.12524	1556.08618	103.28223	1209.12256	1642.73706	109.45297	1086.97534	1655.16907	127.89856	968.18622	1672.58484	193.50488	831.77509	1641.72705	139.88927	831.01569	1680.89343	179.85161	756.31592	1683.15674	223.55629	955.14026	1296.58667	228.43446	971.84485	1517.63586	66.52473	988.17676	1327.14075	76.48899	994.32483	1495.29907	124.45322	642.50757	1254.77966	99.96148	480.36926	1278.6864	8.60392	239.10231	1292.47095	-37.61942	74.2149	1341.20911	-80.69658	65.11539	1386.75635	103.12646	38.62313	1342.6178	230.63943	646.58344	1589.87756	266.62872	528.36829	1561.85913	298.45483	267.70453	1576.4729	347.56363	85.18118	1541.4043	318.05484	50.71937	1496.578	504.19937	87.47942	1540.33325	120.09624	1699.86865	1392.42981	NaN	NaN	NaN	NaN	NaN	NaN	NaN	NaN	NaN	NaN	NaN	NaN	NaN	NaN	NaN	NaN	NaN	NaN	NaN	NaN	NaN	NaN	NaN	NaN	NaN	NaN	NaN
226	2.25	228.84587	1662.66833	1337.58887	226.47171	1654.21655	1469.37134	97.62325	1603.95984	1335.84485	96.35973	1600.68115	1465.25977	98.66489	1450.6189	1391.11475	58.37977	1122.85254	1403.49573	207.71753	1373.2124	1399.42883	245.57596	1196.60657	1393.78064	21.08905	1281.59485	1469.04895	169.39282	1404.40698	1235.45361	205.58228	1205.43359	1163.55017	231.81366	1094.82825	1152.41406	323.7211	973.79279	1155.60742	419.08133	909.29633	1225.9635	380.11981	871.72955	1180.53589	454.25946	823.99988	1200.34033	155.95265	1405.03369	1557.41357	109.67535	1208.07043	1644.08081	115.62469	1085.91272	1656.54834	133.89729	967.09271	1673.94836	199.22481	830.49542	1643.02734	145.69379	829.89862	1682.29858	185.4608	755.12659	1684.51392	229.52469	954.29895	1297.18994	234.94858	970.89026	1518.32275	72.65059	987.19293	1328.31995	82.94223	993.3252	1496.36548	129.3056	641.92688	1255.48022	103.84862	479.88644	1279.37195	10.28937	239.34578	1292.8219	-37.18144	74.8359	1341.39136	-80.46281	65.91075	1386.84253	103.22414	38.60914	1342.69519	237.18188	645.5675	1590.46619	272.89291	527.38104	1562.35632	303.65817	266.37518	1577.04236	351.69611	83.59597	1541.89685	321.79172	49.17856	1497.30359	508.32196	85.45208	1539.81653	126.09083	1698.96704	1394.05115	NaN	NaN	NaN	NaN	NaN	NaN	NaN	NaN	NaN	NaN	NaN	NaN	NaN	NaN	NaN	NaN	NaN	NaN	NaN	NaN	NaN	NaN	NaN	NaN	NaN	NaN	NaN
227	2.26	234.78522	1661.86328	1339.04919	232.5959	1653.21069	1470.87781	103.53747	1603.09167	1337.50232	102.54873	1599.72852	1466.94666	104.78452	1449.63574	1392.58838	64.61774	1121.88574	1404.74683	213.76169	1372.29822	1400.6626	251.65825	1195.72815	1394.82263	27.28626	1280.59033	1470.49194	175.13646	1403.63062	1236.82922	211.04785	1204.62134	1164.81909	237.28711	1093.84412	1153.68066	329.38864	973.22601	1156.94629	424.68396	909.04785	1227.68066	385.85306	871.29181	1182.37842	460.24402	823.84656	1202.36768	162.2767	1403.94104	1558.78149	116.05702	1206.97168	1645.50574	121.92847	1084.81555	1657.92432	140.00172	966.00134	1675.39087	205.04953	829.30402	1644.42334	151.63406	828.85028	1683.91504	191.26343	753.98572	1685.9801	235.56865	953.50189	1297.85876	241.59225	969.96198	1519.10779	78.78979	986.23999	1329.47009	89.56966	992.26813	1497.50928	134.24385	641.3385	1256.14905	107.88802	479.42371	1280.02539	12.28479	239.73634	1293.19751	-36.80447	75.49484	1341.51929	-80.34121	67.02605	1386.86365	103.2822	38.62513	1342.78003	243.81631	644.43439	1591.15955	279.29068	526.26587	1562.8009	308.37057	264.88367	1577.65808	354.84702	81.68277	1542.42102	324.59933	47.11856	1498.0802	511.6127	82.95164	1539.02234	132.03746	1698.04248	1395.78711	NaN	NaN	NaN	NaN	NaN	NaN	NaN	NaN	NaN	NaN	NaN	NaN	NaN	NaN	NaN	NaN	NaN	NaN	NaN	NaN	NaN	NaN	NaN	NaN	NaN	NaN	NaN
